Patient4_TMGait_0pt5_02_left_15_EMG.mot
version=1
nRows=26
nColumns=33
inDegrees=no
endheader
time	1LAddLong	2LGlutMax	3LGlutMed	4LIliopsoas	5LSemiMemb	6LBicFemLong	7LRecFem	8LVastMed	9LVastLat	10LGasMed	11LTibAnt	12lTibPost	13LPeroneusLong	14LSol	15LExtDigLong	16LFlexDigLong	17RAddLong	18RGlutMax	19RGlutMed	20RIliopsoas	21RSemiMemb	22RBicFemLong	23RRecFem	24RVastMed	25RVastLat	26RGasMed	27RTibAnt	28RTibPost	29RPeroneusLong	30RSol	31RExtDigLong	32RFlexDigLong
18.93	0.007782	0.036316	-0.058899	0.011292	-0.001526	-0.020905	0.067291	0.001221	-0.1622	-0.038757	-0.017853	0.011292	0.043793	-0.05661	-0.15243	0.000763	0.019073	-0.058441	0.32761	0.29572	0.20462	0.026855	-0.3157	0.017242	-0.031433	-0.015106	-0.16007	-0.003204	-0.038452	0.087433	-0.004272	-0.005951
18.931	0.00946	0.045929	-0.06012	0.016937	-0.006409	-0.028381	0.093079	0.000153	-0.177	-0.040131	0.055237	0.019531	0.065918	-0.09079	-0.2832	0.001068	0.033875	-0.081024	-0.10727	0.098877	-0.065765	0.071716	-0.30273	0.15198	0.002594	-0.010376	-0.14481	0.003357	-0.093536	-0.092773	-0.003357	0.004578
18.932	0.015106	0.022736	-0.051117	0.003967	-0.005493	-0.027313	0.11826	-0.00351	-0.20004	-0.072174	0.18921	0.012207	0.041962	-0.081787	-0.1712	-0.008545	0.018921	-0.07782	0.22064	-0.000458	-0.15762	0.013885	-0.066376	0.15747	0.008545	-0.005493	0.13886	0.004578	-0.60379	-0.28595	-0.003815	-0.00061
18.933	0.013123	0.065002	-0.076141	0.005951	0.001831	-0.029602	0.10605	-0.002289	-0.22415	-0.10315	0.25543	-0.001831	0.010071	0.01236	-0.16617	-0.003357	0.000153	-0.086517	-0.1268	0.074005	-0.35767	-0.097046	0.035706	0.30853	0.11429	0.001831	0.21866	0.007629	-0.91904	-0.48462	-0.001221	0.00061
18.934	0.007629	0.052032	-0.057373	-0.008392	-0.001831	-0.036774	0.12848	-0.001373	-0.24017	-0.067596	0.23331	0.009003	-0.02182	0.048523	0.00473	0.003967	0.009918	-0.085449	-0.39124	0.098572	-0.12116	-0.08255	0.093536	0.27115	0.11505	0.006104	0.51865	0.001373	-0.35675	-0.39383	-0.002594	0.000305
18.935	0.007629	0.045471	-0.074005	0.007629	-0.010071	-0.014191	0.10239	-0.00061	-0.26916	-0.034027	-0.12741	0.010529	-0.003662	-0.015259	-0.18295	-0.002899	0.018921	-0.072937	0.051727	0.036774	0.08728	-0.049438	0.22858	0.30518	0.12253	-0.005646	0.53589	0.001678	0.18433	-0.28061	-0.002136	-0.007935
18.936	0.011292	0.032654	-0.07782	0.009613	-0.033875	-0.031738	0.11261	-0.004578	-0.31067	-0.018005	-0.14374	0.014648	0.058289	-0.073547	-0.072937	0.005341	-0.00351	-0.013428	0.20523	-0.013885	0.12161	-0.027771	0.076447	0.25284	0.047302	-0.011749	-0.1738	0.001526	0.44952	-0.2652	-0.009308	-0.005798
18.937	0.00946	0.018158	-0.064697	0.012054	-0.019836	-0.001984	0.11841	-0.005188	-0.32898	-0.026245	-0.11185	0.005646	0.11658	-0.067139	0.056305	0.01297	-0.018005	-0.079041	0.12497	0.005646	0.023956	0.013123	-0.17654	0.29175	0.11154	-0.017853	-0.31799	0.006561	0.84625	-0.22568	-0.005035	-0.003204
18.938	-0.00473	0.007477	-0.053864	-0.002441	0.003204	-0.017548	0.11993	-0.000458	-0.3215	-0.011444	-0.065155	0.010071	0.08606	-0.010376	0.083313	0.002441	-0.024872	-0.047607	0.28732	-0.019226	0.13092	-0.056	-0.12436	0.16525	0.23178	-0.010681	-0.63751	0.000305	1.0887	-0.18021	-0.003204	-0.000763
18.939	0.005493	-0.00824	-0.036621	-0.006409	-0.005798	-0.010223	0.065155	-0.003204	-0.29816	0.053558	0.06134	0.018921	0.01709	0.003052	0.048981	-0.005646	0.007019	-0.048065	0.52567	-0.056152	0.16388	-0.12024	0.18097	-0.1297	0.15747	0.000153	-0.39475	0.005646	0.77286	-0.18158	-0.002289	0.005798
18.94	0.010376	-0.054932	-0.048065	0.007172	-0.002594	-0.017395	0.004272	-0.000916	-0.24551	0.056763	0.10819	0.006866	0.01358	-0.002289	-0.004578	0.008698	0.014648	-0.10544	0.013275	-0.065002	-0.14893	-0.018158	0.29343	-0.26688	0.13504	0.023956	0.49667	0.003815	-0.13733	-0.29175	-0.003357	0.010529
18.941	0.011139	-0.092926	-0.072632	-0.000763	0	-0.018158	-0.007782	0.004425	-0.17349	0.019989	-0.002594	0.007935	0.066833	-0.023804	-0.07782	0.001678	0.018311	-0.13473	-0.27191	-0.019989	-0.13519	-0.013885	0.085754	-0.32638	0.14847	0.024414	0.28961	0.005493	-1.2851	-0.22705	0.001373	0.011902
18.942	0.015564	-0.11108	-0.0737	0.000763	-0.009766	-0.02182	-0.037079	0.003204	-0.11978	0.02121	-0.097809	0.006256	0.066071	-0.10162	-0.00885	0.008087	0.012207	-0.060883	-0.26413	-0.024109	-0.073242	-0.034637	-0.13519	-0.26703	0.019226	0.013123	0.29098	-0.000458	-0.37476	-0.088348	-0.003052	0.011597
18.943	0.008087	-0.11948	-0.070801	0.002594	-0.023041	-0.039368	-0.081635	0.003052	-0.078583	0.00351	-0.052338	0	0.036011	-0.11566	0.088196	-0.003967	0.002594	-0.048523	-0.083618	-0.042725	-0.070801	0.055542	-0.45639	-0.26398	0.068207	0.011597	0.10071	0.003815	-0.22934	0.022736	-0.001831	0.00885
18.944	0.015411	-0.13718	-0.059967	-0.002441	-0.013428	-0.028381	-0.081177	-0.000305	-0.038605	-0.030975	-0.14542	0.009155	0.044403	-0.081482	0.31311	0.020142	-0.022583	-0.097198	0.41046	-0.029602	-0.17716	0.011597	-0.48325	-0.27084	0.103	-0.000153	-0.70801	0.00351	0.29587	0.1416	-0.003662	0.002289
18.945	0.008698	-0.13321	-0.067749	0.002747	0.003357	-0.033417	-0.081482	0.004272	-0.014954	-0.052643	-0.091705	0.016022	0.042114	-0.021362	0.16663	0.012665	-0.014038	-0.14038	-0.034485	0.035248	-0.24002	-0.031128	-0.13443	-0.022736	0.24307	-0.008392	-0.38834	0.001831	-0.22446	0.19073	-0.002136	0.004883
18.946	0.010223	-0.11734	-0.079193	0.019073	-0.005798	-0.043793	-0.060883	0.001831	0.022125	-0.05127	0.10468	0.00351	0.009308	-0.049744	0.12421	0.012665	-0.020905	-0.066681	-0.18875	-0.004578	-0.032043	-0.039978	-0.04364	0.14526	0.35202	-0.020599	0.55847	0.003204	-0.010834	0.29923	-0.001526	-0.001373
18.947	0.006561	-0.12909	-0.046844	0.007629	0.00061	-0.035553	0.013733	-0.001068	0.040741	-0.05249	-0.019684	0.011749	0.049133	-0.000458	-0.028076	0.001373	-0.035095	-0.10407	-0.043793	-0.075378	0.35553	-0.015106	0.006104	0.289	0.30273	-0.021057	0.22125	0.007629	0.43076	0.37155	-0.001984	-0.003357
18.948	0.011139	-0.09903	-0.050049	0.000916	-0.000305	-0.03891	0.036926	-0.000916	0.045166	-0.056915	0.002289	0.010376	0.071106	0.014038	-0.031433	0.012207	-0.014801	-0.087891	0.112	-0.08728	0.16357	-0.065002	-0.010071	0.14755	-0.16235	-0.010986	0.30426	0.00824	0.29968	0.29068	-0.002441	-0.005951
18.949	0.006409	-0.093231	-0.033875	-0.016785	-0.009766	-0.024719	0.040894	0.002747	0.059509	-0.044556	0.17364	0.001678	0.026093	-0.022736	0.039368	0.007324	-0.011292	-0.067596	0.060883	-0.092773	0.10391	-0.073242	-0.16083	-0.12497	-0.066681	0.003357	0.47882	0.002899	-0.37994	0.11032	-0.003662	0.001678
18.95	0.007477	-0.084991	-0.050812	-0.009003	-0.005188	-0.046234	0.03006	-0.000458	0.086823	-0.024261	0.11597	0.005646	0.034027	-0.052032	0.067444	-0.001526	-0.002441	-0.021057	-0.16052	-0.07782	0.059967	-0.094147	-0.11139	-0.19409	-0.018158	0.005188	-0.097656	0.011597	-0.38193	0.066681	-0.004578	-0.005341
18.951	0.00824	-0.061035	-0.074463	0.005646	0.00061	-0.034027	0.008087	0.00061	0.11017	-0.01358	0.06012	0.009003	0.085907	-0.033112	0.082245	0.002899	0.008087	-0.057983	-0.14297	-0.055847	0.043793	-0.037384	-0.21423	-0.12405	-0.002289	-0.00885	-0.34271	0.008545	-0.092621	0.12039	-0.002441	-0.007782
18.952	0.007172	-0.041046	-0.072479	0.003815	-0.000916	-0.027466	-0.023956	0.003052	0.14053	-0.014343	0.011597	0.004883	0.1329	0.003204	-0.094147	0.009766	0.005188	-0.023956	-0.030823	0.042267	0.015259	-0.022125	-0.25787	-0.12787	-0.062561	-0.010223	-0.34515	0.009308	0.15656	0.098877	-0.002289	-0.009003
18.953	0.007629	-0.061035	-0.059662	0.021973	0.004425	-0.038757	-0.011902	0.002289	0.14969	-0.006866	-0.001221	0.001221	0.072479	0.009308	-0.011902	0.012665	0.001831	-0.073547	-0.075531	0.08255	-0.011139	-0.031738	-0.21515	0.01358	-0.10178	-0.015106	-0.25101	-0.000153	-0.6694	0.071259	-0.003052	-0.013885
18.954	0.007629	-0.043793	-0.043945	0.011444	-0.003662	-0.020752	-0.015564	0.00061	0.15778	-0.024414	0.057678	0.003357	0.077209	-0.003204	-0.32745	0.010834	0.000305	-0.038452	-0.1831	0.033417	-0.020599	-0.008545	-0.090027	0.06424	0.003204	-0.009918	-0.005798	0.013275	-0.67749	0.081635	-0.003357	-0.013275
18.955	0.005188	-0.065002	-0.042877	0.010376	-0.010071	-0.005646	-0.013123	0.005035	0.17227	-0.042419	0.085449	0.000763	0.03891	0.020447	-0.12558	0.010834	-0.010223	-0.080872	-0.11719	0.016479	-0.019226	0.011292	-0.05188	-0.2121	0.020752	-0.006714	0.098877	0.011139	-0.93323	0.1033	-0.006866	-0.00412
